<svg width="16" height="15" viewBox="0 0 16 15" fill="none" xmlns="http://www.w3.org/2000/svg">
<path d="M0 4.99858L8.00013 14.667L3.24034 4.99858H0Z" fill="url(#paint0_linear_19_129)"/>
<path d="M12.7597 4.99858L8.00049 14.667L16.0001 4.99858H12.7597" fill="url(#paint1_linear_19_129)"/>
<path d="M3.49081 0.492363L3.24048 4.99854L8.00017 4.41088e-06L3.49081 0.492363Z" fill="url(#paint2_linear_19_129)"/>
<path d="M12.7597 4.99854L12.5092 0.492363L8.00024 4.41088e-06L12.7597 4.99854Z" fill="url(#paint3_linear_19_129)"/>
<path d="M12.7597 4.99854H16L12.5093 0.492363L12.7597 4.99854Z" fill="url(#paint4_linear_19_129)"/>
<path d="M0 4.99854H3.24034L3.49068 0.492363L0 4.99854Z" fill="url(#paint5_linear_19_129)"/>
<path d="M8.00017 4.51763e-06L3.24048 4.99854H12.7596L8.00017 4.51763e-06Z" fill="url(#paint6_linear_19_129)"/>
<path d="M3.24023 4.99858L8.00005 14.667H8.00037L12.7596 4.99858H3.24023Z" fill="url(#paint7_linear_19_129)"/>
<defs>
<linearGradient id="paint0_linear_19_129" x1="7.59322" y1="7.2543" x2="2.48934e-07" y2="11.7289" gradientUnits="userSpaceOnUse">
<stop stop-color="#15627A"/>
<stop offset="1" stop-color="#15627A" stop-opacity="0"/>
</linearGradient>
<linearGradient id="paint1_linear_19_129" x1="11.3899" y1="5.01701" x2="15.3899" y2="15.4577" gradientUnits="userSpaceOnUse">
<stop stop-color="#15627A"/>
<stop offset="1" stop-color="#15627A" stop-opacity="0"/>
</linearGradient>
<linearGradient id="paint2_linear_19_129" x1="5.89835" y1="3.18645" x2="0.135637" y2="-2.23728" gradientUnits="userSpaceOnUse">
<stop stop-color="#82C2D6"/>
<stop offset="1" stop-color="#82C2D6" stop-opacity="0"/>
</linearGradient>
<linearGradient id="paint3_linear_19_129" x1="10.8474" y1="4.27119" x2="12.4067" y2="0.338989" gradientUnits="userSpaceOnUse">
<stop stop-color="white"/>
<stop offset="1" stop-color="#82C2D6"/>
</linearGradient>
<linearGradient id="paint4_linear_19_129" x1="12.0678" y1="5.69492" x2="18.9831" y2="0.542379" gradientUnits="userSpaceOnUse">
<stop stop-color="white"/>
<stop offset="1" stop-color="#348DB5" stop-opacity="0"/>
</linearGradient>
<linearGradient id="paint5_linear_19_129" x1="7.79661" y1="6.44069" x2="-0.542373" y2="-0.542367" gradientUnits="userSpaceOnUse">
<stop stop-color="#348DB5"/>
<stop offset="1" stop-color="#348DB5" stop-opacity="0"/>
</linearGradient>
<linearGradient id="paint6_linear_19_129" x1="8.00003" y1="4.99854" x2="8.00003" y2="6.07915e-06" gradientUnits="userSpaceOnUse">
<stop stop-color="#59B8D1"/>
<stop offset="0.0001" stop-color="white"/>
<stop offset="1" stop-color="#59B8D1"/>
<stop offset="1" stop-color="white"/>
</linearGradient>
<linearGradient id="paint7_linear_19_129" x1="7.99992" y1="4.54243" x2="7.99992" y2="17.356" gradientUnits="userSpaceOnUse">
<stop stop-color="#297A97"/>
<stop offset="1" stop-color="#297A97" stop-opacity="0"/>
</linearGradient>
</defs>
</svg>
