<svg width="207" height="48" viewBox="0 0 207 48" fill="none" xmlns="http://www.w3.org/2000/svg">
<path fill-rule="evenodd" clip-rule="evenodd" d="M51.7804 46.8347C57.9398 42.0479 61.9029 34.5687 61.9029 26.1638C61.9029 11.7139 50.189 0 35.7391 0C21.2893 0 9.57535 11.7139 9.57535 26.1638C9.57535 29.2356 10.1047 32.1837 11.0772 34.922C11.2215 34.9887 11.3646 35.0574 11.5063 35.1254C12.1045 35.4124 12.6765 35.6869 13.1943 35.7437C14.0701 35.8399 15.7132 35.3727 17.1036 34.9774C18.0543 34.7072 18.8867 34.4705 19.2748 34.4705C19.8918 34.4705 18.9114 35.4789 17.7429 36.6807C16.5067 37.9522 15.0599 39.4403 15.0715 40.1798C15.0797 40.7024 15.0849 41.4118 14.988 42.1012C16.756 44.3998 18.8974 46.3964 21.3214 48.0001C21.9589 46.9552 22.7749 45.8625 23.7968 44.8515C27.0172 41.6655 29.5594 40.1267 33.1217 37.9706L33.1246 37.9688L33.1279 37.9669L33.1281 37.9668C33.4251 37.787 33.7292 37.6029 34.0414 37.4132C38.1013 34.9464 39.3155 32.8592 39.2396 31.4171C39.1637 29.9749 37.3045 29.3677 35.6729 29.3298C35.0153 29.7219 33.1535 30.7567 30.968 31.7586C28.2361 33.011 28.35 34.6428 31.1957 35.2121C30.0068 36.0344 26.3997 37.0868 21.4823 34.7187C23.43 34.6302 27.5835 33.0186 28.6156 27.2805C26.6299 27.3817 22.4233 28.6011 21.4823 32.6694C20.3314 32.252 17.6728 32.0167 16.2462 34.4151C15.7276 32.7453 15.2672 28.6467 17.5742 25.6106C17.6374 26.2938 18.0067 27.622 18.9781 27.4702C20.1922 27.2805 22.4309 25.4588 23.1518 22.7644C23.2192 22.5124 23.282 22.2643 23.3439 22.0198C23.4517 21.5937 23.5569 21.1782 23.6792 20.771L16.379 21.631C16.1254 21.6458 15.6599 21.5714 15.8272 21.1551C15.9945 20.7387 20.1956 18.7021 22.2752 17.7358C22.0361 16.2163 22.2315 12.4669 24.9255 9.62518L24.5172 7.68985C25.3904 6.42999 28.1812 3.67002 32.3588 2.70907C37.5808 1.50789 46.7624 3.31123 48.3884 15.2005C49.1973 15.4358 50.8194 15.9419 50.8362 16.0842L50.9619 17.1512C51.0072 17.2811 50.9823 17.5545 50.52 17.609L46.2227 18.1153C46.8851 18.318 47.6527 18.4927 48.4714 18.6791C49.4856 18.9099 50.5783 19.1586 51.6469 19.5006C55.4412 20.715 58.211 22.8782 58.6663 26.4456C57.7051 25.3956 55.3881 23.66 53.8096 25.1173C51.9363 26.8469 53.1415 28.8501 53.5928 29.6004L53.5933 29.6011L53.617 29.6407C53.6317 29.6651 53.6454 29.688 53.6579 29.7093C54.0373 30.3544 55.4791 33.5802 54.3788 36.6163C53.8717 38.0154 53.3163 38.8262 52.8127 39.5612C52.2237 40.421 51.7056 41.1772 51.4192 42.6504C51.1858 43.8512 51.2235 45.3233 51.7804 46.8347ZM13.9051 36.7473C12.5154 37.1435 10.873 37.6119 9.99772 37.5155C9.48009 37.4585 8.90838 37.1833 8.31049 36.8956C6.78047 36.1591 5.07901 35.3402 3.6736 37.8841C4.47492 37.839 6.00116 38.0734 5.69561 39.3714C5.41676 40.556 4.20377 40.6595 3.01847 40.7606C2.58031 40.798 2.14593 40.835 1.76392 40.9263C0.348516 41.2643 -0.482755 43.4727 0.303583 45.0051C0.543228 44.5619 1.32807 43.7116 2.55026 43.8558C2.81036 43.8865 3.08608 43.9355 3.37211 43.9863C4.76616 44.2339 6.40504 44.5251 7.67269 42.9544C7.91233 42.7441 8.5444 42.4496 9.15549 42.9544C9.91937 43.5854 10.2564 44.9375 7.22335 44.8924C7.38811 45.3206 8.1355 46.1859 9.80703 46.222C11.8964 46.267 11.8964 43.4051 11.874 41.9629C11.8624 41.2215 13.3084 39.7296 14.5441 38.4549C15.712 37.25 16.6919 36.239 16.0753 36.239C15.6874 36.239 14.8553 36.4763 13.9051 36.7473Z" fill="white"/>
<path d="M95.0391 24.312C95.0391 27.608 94.1111 29.904 92.2551 31.2C90.5431 32.4 88.1911 33 85.1991 33H78.4071V32.544H79.9911V16.656H78.4071V16.2H85.8231C88.8951 16.2 91.1991 16.832 92.7351 18.096C94.2711 19.344 95.0391 21.416 95.0391 24.312ZM84.6711 32.544H85.5831C87.1991 32.544 88.3511 31.976 89.0391 30.84C89.7431 29.688 90.0951 27.768 90.0951 25.08V23.688C90.0951 20.088 89.4071 17.92 88.0311 17.184C87.3751 16.832 86.4471 16.656 85.2471 16.656H84.6711V32.544ZM104.276 22.248C103.684 22.248 103.164 22.632 102.716 23.4C102.268 24.168 102.044 25.08 102.044 26.136V32.568H103.748V33H96.2603V32.568H97.5803V22.008H96.2603V21.576H102.044V23.88C102.252 23.064 102.652 22.44 103.244 22.008C103.836 21.56 104.508 21.336 105.26 21.336C106.012 21.336 106.62 21.552 107.084 21.984C107.564 22.4 107.804 23 107.804 23.784C107.804 24.552 107.628 25.144 107.276 25.56C106.924 25.976 106.38 26.184 105.644 26.184C104.924 26.184 104.388 25.944 104.036 25.464C103.7 24.984 103.66 24.32 103.916 23.472H104.78C105.18 22.656 105.012 22.248 104.276 22.248ZM113.552 27.36H114.248V25.512C114.248 23.992 114.16 22.976 113.984 22.464C113.824 21.936 113.504 21.672 113.024 21.672C112.736 21.672 112.472 21.752 112.232 21.912C112.008 22.056 111.896 22.264 111.896 22.536C111.896 22.792 111.944 23.056 112.04 23.328H112.64C112.768 23.664 112.832 24.072 112.832 24.552C112.832 25.016 112.632 25.424 112.232 25.776C111.832 26.112 111.328 26.28 110.72 26.28C109.344 26.28 108.656 25.616 108.656 24.288C108.656 22.32 110.328 21.336 113.672 21.336C115.576 21.336 116.888 21.664 117.608 22.32C118.344 22.96 118.712 24.144 118.712 25.872V30.744C118.712 31.576 118.944 31.992 119.408 31.992C119.952 31.992 120.272 31.168 120.368 29.52L120.728 29.544C120.664 30.952 120.4 31.92 119.936 32.448C119.472 32.976 118.712 33.24 117.656 33.24C115.736 33.24 114.632 32.648 114.344 31.464C114.136 32.072 113.824 32.52 113.408 32.808C112.992 33.096 112.384 33.24 111.584 33.24C109.216 33.24 108.032 32.272 108.032 30.336C108.032 29.2 108.48 28.424 109.376 28.008C110.288 27.576 111.68 27.36 113.552 27.36ZM112.592 30.312C112.592 31.144 112.632 31.68 112.712 31.92C112.808 32.16 112.976 32.28 113.216 32.28C113.472 32.28 113.704 32.08 113.912 31.68C114.136 31.264 114.248 30.696 114.248 29.976V27.744H114.08C113.088 27.744 112.592 28.472 112.592 29.928V30.312ZM130.47 20.328L131.142 19.92C131.238 19.424 131.046 19.176 130.566 19.176C129.878 19.176 129.534 19.704 129.534 20.76C129.534 21.176 129.59 21.656 129.702 22.2C130.918 23.016 131.526 24.064 131.526 25.344C131.526 26.608 131.086 27.592 130.206 28.296C129.326 29 128.134 29.352 126.63 29.352C126.006 29.352 125.358 29.288 124.686 29.16C123.982 29.608 123.63 29.944 123.63 30.168C123.63 30.392 124.142 30.504 125.166 30.504H127.614C131.246 30.504 133.062 31.808 133.062 34.416C133.062 35.824 132.51 36.936 131.406 37.752C130.318 38.584 128.614 39 126.294 39C122.342 39 120.366 38.144 120.366 36.432C120.366 35.504 120.982 34.864 122.214 34.512L123.654 35.16C123.526 35.624 123.462 36.064 123.462 36.48C123.462 37.856 124.486 38.544 126.534 38.544C127.782 38.544 128.742 38.312 129.414 37.848C130.086 37.384 130.422 36.808 130.422 36.12C130.422 35.432 130.214 34.968 129.798 34.728C129.398 34.504 128.59 34.392 127.374 34.392H125.046C123.75 34.392 122.822 34.176 122.262 33.744C121.702 33.312 121.422 32.784 121.422 32.16C121.422 31.52 121.622 30.992 122.022 30.576C122.422 30.144 123.134 29.616 124.158 28.992C122.302 28.464 121.374 27.248 121.374 25.344C121.374 24.144 121.806 23.176 122.67 22.44C123.534 21.704 124.83 21.336 126.558 21.336C127.598 21.336 128.486 21.536 129.222 21.936C129.126 21.504 129.078 21.112 129.078 20.76C129.078 19.864 129.318 19.216 129.798 18.816C130.278 18.416 130.814 18.216 131.406 18.216C131.998 18.216 132.47 18.376 132.822 18.696C133.19 19 133.374 19.424 133.374 19.968C133.374 20.512 133.23 20.92 132.942 21.192C132.654 21.448 132.302 21.576 131.886 21.576C131.486 21.576 131.15 21.472 130.878 21.264C130.622 21.04 130.486 20.728 130.47 20.328ZM125.382 24.816V26.112C125.382 27.184 125.47 27.912 125.646 28.296C125.838 28.68 126.118 28.872 126.486 28.872C126.87 28.872 127.142 28.688 127.302 28.32C127.478 27.936 127.566 27.16 127.566 25.992V24.816C127.566 23.568 127.486 22.752 127.326 22.368C127.166 21.968 126.894 21.768 126.51 21.768C126.142 21.768 125.862 21.976 125.67 22.392C125.478 22.792 125.382 23.6 125.382 24.816ZM140.411 28.272V26.232C140.411 24.68 140.323 23.552 140.147 22.848C139.987 22.128 139.603 21.768 138.995 21.768C138.643 21.768 138.355 21.872 138.131 22.08C137.923 22.272 137.771 22.6 137.675 23.064C137.531 23.784 137.459 24.88 137.459 26.352V28.224C137.459 29.968 137.507 31.016 137.603 31.368C137.715 31.72 137.827 32.008 137.939 32.232C138.115 32.616 138.459 32.808 138.971 32.808C139.595 32.808 140.003 32.448 140.195 31.728C140.339 31.216 140.411 30.064 140.411 28.272ZM138.923 33.24C136.923 33.24 135.411 32.728 134.387 31.704C133.363 30.68 132.851 29.216 132.851 27.312C132.851 25.392 133.395 23.92 134.483 22.896C135.587 21.856 137.131 21.336 139.115 21.336C141.099 21.336 142.579 21.816 143.555 22.776C144.531 23.72 145.019 25.168 145.019 27.12C145.019 31.2 142.987 33.24 138.923 33.24ZM145.738 21.576H151.522V23.784C151.778 23.048 152.17 22.456 152.698 22.008C153.226 21.56 154.026 21.336 155.098 21.336C157.578 21.336 158.818 22.672 158.818 25.344V32.568H160.162V33H153.37V32.568H154.354V24.768C154.354 23.808 154.29 23.192 154.162 22.92C154.034 22.632 153.802 22.488 153.466 22.488C152.954 22.488 152.498 22.824 152.098 23.496C151.714 24.168 151.522 24.984 151.522 25.944V32.568H152.554V33H145.738V32.568H147.058V22.008H145.738V21.576ZM160.743 16.2H173.223L173.463 21.192H173.031C172.439 19.464 171.751 18.288 170.967 17.664C170.199 17.04 169.047 16.728 167.511 16.728H166.839V24.528H167.919C168.687 24.528 169.327 24.248 169.839 23.688C170.351 23.128 170.703 22.36 170.895 21.384H171.255V28.488H170.847C170.591 27.288 170.231 26.432 169.767 25.92C169.319 25.408 168.703 25.152 167.919 25.152H166.839V32.472H169.815V33H160.743V32.472H162.159V16.728H160.743V16.2ZM178.21 19.92C177.362 19.92 176.754 19.704 176.386 19.272C176.034 18.84 175.858 18.304 175.858 17.664C175.858 17.024 176.05 16.496 176.434 16.08C176.834 15.664 177.434 15.456 178.234 15.456C179.034 15.456 179.642 15.648 180.058 16.032C180.474 16.4 180.682 16.936 180.682 17.64C180.682 18.328 180.482 18.88 180.082 19.296C179.682 19.712 179.058 19.92 178.21 19.92ZM174.586 21.576H180.466V32.568H181.81V33H174.682V32.568H176.002V22.008H174.586V21.576ZM190.315 22.248C189.723 22.248 189.203 22.632 188.755 23.4C188.307 24.168 188.083 25.08 188.083 26.136V32.568H189.787V33H182.299V32.568H183.619V22.008H182.299V21.576H188.083V23.88C188.291 23.064 188.691 22.44 189.283 22.008C189.875 21.56 190.547 21.336 191.299 21.336C192.051 21.336 192.659 21.552 193.123 21.984C193.603 22.4 193.843 23 193.843 23.784C193.843 24.552 193.667 25.144 193.315 25.56C192.963 25.976 192.419 26.184 191.683 26.184C190.963 26.184 190.427 25.944 190.075 25.464C189.739 24.984 189.699 24.32 189.955 23.472H190.819C191.219 22.656 191.051 22.248 190.315 22.248ZM200.377 33.24C198.313 33.24 196.761 32.712 195.721 31.656C194.697 30.584 194.185 29.104 194.185 27.216C194.185 25.312 194.761 23.856 195.913 22.848C197.081 21.84 198.561 21.336 200.353 21.336C203.985 21.336 205.729 23.16 205.585 26.808H198.817V27.744C198.817 29.312 199.017 30.496 199.417 31.296C199.817 32.096 200.513 32.496 201.505 32.496C203.361 32.496 204.577 31.504 205.153 29.52L205.585 29.592C205.281 30.744 204.729 31.64 203.929 32.28C203.145 32.92 201.961 33.24 200.377 33.24ZM198.841 26.328H201.313V25.152C201.313 23.856 201.233 22.976 201.073 22.512C200.929 22.032 200.625 21.792 200.161 21.792C199.713 21.792 199.377 22.048 199.153 22.56C198.945 23.056 198.841 23.92 198.841 25.152V26.328Z" fill="white"/>
</svg>
